<?xml version="1.0" standalone="no"?>
<!DOCTYPE svg PUBLIC "-//W3C//DTD SVG 1.1//EN" "http://www.w3.org/Graphics/SVG/1.1/DTD/svg11.dtd" >
<svg xmlns="http://www.w3.org/2000/svg">
<metadata>
This is a custom SVG webfont generated by Font Squirrel.
Copyright   : 2011
Designer    : Chandler Van De Water
</metadata>
<defs>
<font id="CubanoSharpItalic" horiz-adv-x="1228" >
<font-face units-per-em="2048" ascent="1638" descent="-410" />
<missing-glyph horiz-adv-x="614" />
<glyph unicode=" "  horiz-adv-x="614" />
<glyph unicode="&#x09;" horiz-adv-x="614" />
<glyph unicode="&#xa0;" horiz-adv-x="614" />
<glyph unicode="!" horiz-adv-x="679" d="M61 0h353l61 352h-352zM143 451h349l217 983h-439z" />
<glyph unicode="&#x22;" horiz-adv-x="802" d="M94 1081h217l135 455h-325zM463 1081h217l135 455h-326z" />
<glyph unicode="#" d="M-74 410l76 204h291l80 205h-285l74 205h289l159 410h205l-158 -410h203l160 410h203l-156 -410h285l-78 -205h-287l-80 -205h285l-76 -204h-289l-159 -410h-203l156 410h-203l-160 -410h-203l156 410h-285zM498 614h204l80 205h-204z" />
<glyph unicode="$" horiz-adv-x="1185" d="M53 293q-6 76 2 149l336 76q-10 -92 28 -128t113 -36q72 0 119 33t43 66q0 37 -44 68.5t-108.5 54t-135 59.5t-129 81t-88 123t-11.5 179q4 27 21.5 71t55.5 107.5t117 118.5t181 80l35 192h352l-37 -201q104 -31 162.5 -97t72 -135t1.5 -142l-342 -74q2 80 -34 111.5 t-114 31.5q-55 0 -88 -25.5t-31 -51.5q0 -33 32 -61t83 -51.5t113.5 -50t121 -63.5t103.5 -84t66.5 -117.5t5.5 -158.5q-4 -27 -24.5 -69t-63.5 -104.5t-127 -118.5t-191 -81l-33 -201h-350l33 201q-113 29 -176.5 100.5t-69.5 147.5z" />
<glyph unicode="%" horiz-adv-x="1327" d="M-82 0l1305 1434h233l-1304 -1434h-234zM188 1124q16 84 88 145.5t156 61.5t134 -61.5t36 -145.5q-16 -84 -88 -145t-156 -61t-134 61t-36 145zM774 309q14 84 86 145.5t156 61.5t135 -61.5t37 -145.5q-16 -84 -88 -145.5t-156 -61.5t-134 61.5t-36 145.5z" />
<glyph unicode="&#x26;" horiz-adv-x="1314" d="M25 193q-39 129 38.5 284.5t264.5 280.5q-129 199 -43 418q55 137 184 224t319 68q182 -18 257 -142t14 -288q-39 -100 -106.5 -182t-200.5 -174l127 -180q117 80 174 129l34 -43l132 -191q-100 -88 -175 -139l80 -111l-266 -182l-76 117q-205 -119 -403 -119 q-137 0 -230 66t-124 164zM361.5 421q-33.5 -48 0.5 -106q25 -45 96.5 -43t157.5 56q-8 14 -63 93t-72 105q-86 -57 -119.5 -105zM553 1033q8 -32 55 -115q53 33 100.5 72.5t59.5 72.5q12 39 -4 79t-66 46q-47 6 -85 -19.5t-52 -64.5q-16 -39 -8 -71z" />
<glyph unicode="'" horiz-adv-x="434" d="M197 1081h217l135 455h-326z" />
<glyph unicode="(" horiz-adv-x="604" d="M53 649q-92 -526 330 -979l45 256q-211 295 -139 719q74 438 395 737l45 256q-582 -448 -676 -989z" />
<glyph unicode=")" horiz-adv-x="604" d="M-98 -330q582 453 673 979q94 541 -327 989l-45 -256q217 -299 137 -737q-78 -422 -393 -719z" />
<glyph unicode="*" horiz-adv-x="819" d="M139 1227l101 198l219 -100l24 258h209l-65 -258l256 100l30 -198l-262 -62l133 -194l-190 -123l-96 221l-174 -221l-146 123l201 194z" />
<glyph unicode="+" horiz-adv-x="1429" d="M106 494l64 352h416l73 416h353l-74 -416h416l-64 -352h-416l-71 -416h-352l71 416h-416z" />
<glyph unicode="," horiz-adv-x="485" d="M-20 0h176q-27 -135 -138 -225q274 0 324 286l51 291h-352z" />
<glyph unicode="-" horiz-adv-x="1347" d="M127 494l63 352h1061l-63 -352h-1061z" />
<glyph unicode="." horiz-adv-x="485" d="M-20 0h352l61 352h-352z" />
<glyph unicode="/" d="M27 -205l972 1774h230l-973 -1774h-229z" />
<glyph unicode="0" d="M95 450.5q3 81.5 10.5 139t19.5 127.5q14 76 25.5 130t37 139t56 145.5t81 128t111 110.5t147.5 71.5t189 28.5q104 0 181 -28.5t122 -71.5t72 -112.5t35 -130t4 -145.5t-12.5 -137t-20.5 -128q-12 -70 -25.5 -127.5t-39 -139t-57.5 -144t-82 -130t-110.5 -112 t-146.5 -73t-186 -28.5t-176 28.5t-121 73t-71.5 112t-36 130t-6.5 144zM447.5 437.5q5.5 -29.5 17.5 -61.5t37.5 -46.5t64.5 -14.5q43 0 79 23.5t58.5 57.5t42 91.5t30.5 106.5t24 123q12 66 17 103.5t10.5 91t0 85t-16.5 62.5t-37.5 45t-65.5 14q-55 0 -94.5 -30.5 t-66 -95t-40.5 -123t-31 -152.5q-12 -66 -17 -102.5t-11.5 -92t-1 -85z" />
<glyph unicode="1" horiz-adv-x="778" d="M145 1024h211l-180 -1024h350l252 1434h-248l-346 -189z" />
<glyph unicode="2" horiz-adv-x="1167" d="M-33 0l41 238q23 131 105 242.5t185 185t205.5 132t180.5 111t94 95.5q18 49 -2 81.5t-78 32.5q-135 0 -184 -157l-342 67q18 76 52 142.5t98.5 140t177 116.5t262.5 43q129 0 217 -39.5t125 -91t51 -119t12 -105.5t-8 -68q-18 -109 -89 -198t-164 -151.5t-188 -117 t-179 -118t-119 -130.5h602l-59 -332h-996z" />
<glyph unicode="3" horiz-adv-x="1208" d="M75 288.5q1 57.5 1 110.5l362 76q2 -92 33 -126t107 -34q63 0 107 51.5t24 112.5q-16 49 -68.5 75t-173.5 40l43 248q127 14 187.5 38.5t95.5 73.5q41 63 15 113.5t-89 50.5q-76 0 -118 -33.5t-77 -126.5l-334 76q115 436 592 436q236 0 337.5 -129t60.5 -319 q-25 -111 -87.5 -188.5t-131.5 -116.5q55 -39 89.5 -117t20.5 -188q-25 -188 -172 -318.5t-383 -130.5q-123 0 -212 28.5t-133 76t-70.5 105.5t-25.5 115.5z" />
<glyph unicode="4" d="M10 492l64 352l293 436h364l-293 -436h289l111 631h352l-111 -631h148l-64 -352h-147l-86 -492h-352l86 492h-654z" />
<glyph unicode="5" horiz-adv-x="1208" d="M64.5 288.5q1.5 57.5 1.5 110.5l362 76q2 -92 33 -126t106 -34q70 0 112 45.5t44 100.5q2 82 -53.5 119.5t-173.5 37.5h-353l144 816h948l-61 -353h-596l-21 -123h125q109 0 192.5 -32.5t129 -86t75 -120t30.5 -133t-5 -125.5q-16 -86 -58 -169t-112 -160t-181.5 -123 t-246.5 -46q-123 0 -212 28.5t-133 76t-71 105.5t-25.5 115.5z" />
<glyph unicode="6" horiz-adv-x="1126" d="M29 461q41 238 214 513t457 460h449q-444 -340 -557 -533q266 25 384 -104t81 -336q-37 -213 -197 -355.5t-405.5 -142.5t-354 142.5t-71.5 355.5zM373 424q-25 -154 135 -154q72 0 124 39t64 115q27 154 -133 154q-72 0 -125 -39t-65 -115z" />
<glyph unicode="7" horiz-adv-x="1167" d="M51 0l670 1081h-590l62 353h1163l-893 -1434h-412z" />
<glyph unicode="8" d="M80 469q39 215 192 324q-66 117 -36 282q33 186 166 290.5t370 104.5q227 0 327.5 -106.5t69.5 -288.5q-29 -162 -141 -284q119 -115 80 -322q-37 -211 -197.5 -356.5t-404.5 -145.5t-353.5 145.5t-72.5 356.5zM432 469q-12 -74 25 -112t112 -38q72 0 123 39t64 111 q27 150 -135 149q-72 0 -124.5 -37.5t-64.5 -111.5zM547 1038q-10 -66 22.5 -100.5t102.5 -34.5q66 0 112.5 35t57.5 100q27 141 -121 142q-66 0 -114 -36t-60 -106z" />
<glyph unicode="9" horiz-adv-x="1146" d="M53 0q369 315 512 535q-512 16 -436 438q37 213 196.5 355t405.5 142t354.5 -142t71.5 -355q-35 -188 -215 -450.5t-438 -522.5h-451zM487 1010q-14 -76 23 -115t113 -39q72 0 124 39t64 115q14 76 -22.5 114.5t-112.5 38.5q-72 0 -124.5 -38.5t-64.5 -114.5z" />
<glyph unicode=":" horiz-adv-x="557" d="M0 0h352l62 352h-353zM96 549h353l63 352h-352z" />
<glyph unicode=";" horiz-adv-x="516" d="M-123 0h176q-27 -135 -137 -225q274 0 324 286l51 291h-352zM-27 549h353l61 352h-352z" />
<glyph unicode="=" horiz-adv-x="1347" d="M80 221l61 352h1061l-61 -352h-1061zM170 735l63 352h1061l-63 -352h-1061z" />
<glyph unicode="?" d="M213 995q84 475 590 475q129 0 217 -39.5t125 -91t51 -119t12 -105.5t-8 -68q-18 -109 -76.5 -199t-121 -141.5t-134 -119t-104.5 -130.5h-348q37 96 94 168.5t107.5 109.5t106.5 96.5t89 131.5q29 61 7.5 108t-81.5 47q-158 0 -204 -200zM334 0h352l62 352h-353z" />
<glyph unicode="@" horiz-adv-x="1712" d="M127 717q55 311 315 532t571.5 221t494 -221t126.5 -532q-35 -203 -140 -332t-284 -129q-131 0 -195.5 70.5t-80.5 162.5q-25 -57 -105.5 -80.5t-158.5 1.5q-78 27 -111 114.5t-14 192.5q23 137 125 227t237 90q39 0 66.5 -11t25.5 -30l9 41h221l-12 -65 q-25 -147 -43 -252q-23 -123 0.5 -180.5t74.5 -57.5q121 0 164 238q39 219 -90 374.5t-352 155.5q-219 0 -400.5 -155.5t-220.5 -374.5q-41 -221 85 -364.5t347 -127.5q125 10 195 37l92 -186q-141 -74 -326 -82q-311 -14 -491 198t-125 525zM764 717q-12 -49 8.5 -78 t61 -29t75.5 28t49 79q14 53 -5 81.5t-62 28.5q-41 0 -78 -28.5t-49 -81.5z" />
<glyph unicode="A" horiz-adv-x="1187" d="M-10 0h352l53 301h299l-53 -301h352l166 938q16 90 21 156q1 13 0 26q0 54 -13 115q-16 76 -59 124t-133 79.5t-223.5 31.5t-234.5 -31.5t-161.5 -79.5t-103.5 -124t-61.5 -141.5t-34.5 -155.5zM457 655l51 283q14 82 47 114.5t127 32.5t117 -32q14 -20 13 -59 q0 -24 -5 -56l-51 -283h-299z" />
<glyph unicode="B" horiz-adv-x="1200" d="M0 0l252 1434h491q285 0 389 -118q72 -82 72 -231q0 -65 -14 -143q-33 -180 -156 -297q57 -31 85 -103q17 -46 18 -99q0 -32 -7 -66q-33 -199 -157.5 -288t-405.5 -89h-567zM401 291h191q82 0 117.5 19.5t48.5 86.5q4 21 4 38q0 37 -20 51q-28 22 -107 22h-195zM494 803 h172q82 0 118.5 25.5t53.5 113.5q6 32 6 56q0 42 -19 58q-29 26 -110 25h-172z" />
<glyph unicode="C" horiz-adv-x="1146" d="M50 304q-1 22 -1 42q0 25 2 44q4 34 10 71l91 512q8 53 23 104t58 128t104.5 131.5t170 94t246.5 39.5q100 0 177 -21.5t124 -53t77.5 -78.5t43 -90t15.5 -97q2 -27 1.5 -48.5t-1.5 -38.5q-3 -34 -9 -70l-355 -76q5 46 6 81q0 58 -15 90q-24 50 -128 50t-143 -58.5 t-64 -195.5l-51 -295q-18 -70 -18 -122q0 -37 9 -64q22 -68 126 -68t145 50.5t70 171.5l328 -76q-10 -55 -25.5 -105.5t-58.5 -127t-104.5 -131t-170 -94.5t-246.5 -40q-100 0 -177 21.5t-124 53.5t-77.5 79t-43 91t-15.5 96z" />
<glyph unicode="D" horiz-adv-x="1214" d="M0 0l252 1434h518q283 0 377 -117q64 -79 64 -223q0 -69 -15 -152l-80 -448q-45 -258 -180 -376t-418 -118h-518zM414 352h172q82 0 119.5 27t52.5 113l41 225l39 225q6 32 6 56q0 42 -19 58q-29 26 -110 25h-172z" />
<glyph unicode="E" horiz-adv-x="1140" d="M0 0h983l61 352h-618l35 189h440l62 352h-441l33 188h619l61 353h-983z" />
<glyph unicode="F" horiz-adv-x="1126" d="M0 0h365l96 541h461l61 352h-461l33 188h639l61 353h-1003z" />
<glyph unicode="G" horiz-adv-x="1187" d="M50 304q-1 22 -1 42q0 25 2 44q4 34 10 71l91 512q8 53 23 104t58 128t104.5 131.5t170 94t246.5 39.5q100 0 177 -21.5t124 -53t77.5 -78.5t43 -90t15.5 -97q2 -27 1.5 -48.5t-1.5 -38.5q-3 -34 -9 -70l-355 -76q5 46 6 81q0 58 -15 90q-24 50 -128 50t-143 -58.5 t-64 -195.5l-51 -295q-18 -70 -18 -122q0 -37 9 -64q22 -68 126 -68q55 0 92 15.5t57.5 47.5t29.5 60.5t17 73.5h-180l51 287h533l-59 -338q-10 -55 -24.5 -105.5t-58.5 -127t-104.5 -131t-169 -94.5t-246.5 -40q-100 0 -177 21.5t-124 53.5t-77.5 79t-43 91t-15.5 96z" />
<glyph unicode="H" d="M0 0h352l78 446h320l-78 -446h352l252 1434h-352l-111 -635h-319l110 635h-352z" />
<glyph unicode="I" horiz-adv-x="552" d="M0 0h348l252 1434h-348z" />
<glyph unicode="J" horiz-adv-x="1138" d="M-14 304q-1 21 -1 39q0 27 2 47q3 34 9 71l352 76q-5 -46 -5 -82q0 -58 14 -89q24 -50 128.5 -50.5t143.5 58t63 195.5l152 865h352l-170 -973q-10 -55 -24.5 -105.5t-58.5 -127t-104.5 -131t-169 -94.5t-245.5 -40q-100 0 -177 21.5t-124 53.5t-78 79t-44 91t-15 96z " />
<glyph unicode="K" horiz-adv-x="1275" d="M0 0l252 1434h356l-90 -514l465 514h442l-591 -658l368 -776h-444l-215 451l-133 -148l-54 -303h-356z" />
<glyph unicode="L" horiz-adv-x="1058" d="M0 0h932l61 352h-579l190 1082h-352z" />
<glyph unicode="M" horiz-adv-x="1622" d="M0 0h352l170 958l64 -958h245l404 958l-170 -958h352l252 1434h-539l-292 -701l-47 701h-539z" />
<glyph unicode="N" horiz-adv-x="1294" d="M0 0h352l140 791l184 -791h414l251 1434h-352l-137 -785l-186 785h-414z" />
<glyph unicode="O" horiz-adv-x="1191" d="M50 304q-1 22 -1 42q0 25 2 44q4 34 10 71l91 512q8 53 23 104t58 128t104.5 131.5t170 94t246 39.5t231.5 -39.5t135 -94t58 -132.5q15 -69 14 -115v-12q-2 -49 -12 -104l-90 -512q-10 -55 -24.5 -105.5t-58.5 -127t-104.5 -131t-169 -94.5t-246.5 -40q-100 0 -177 21.5 t-124 53.5t-77.5 79t-43 91t-15.5 96zM423 383q22 -68 126 -68t143 58.5t64 195.5l51 295q18 70 18 122q0 37 -9 65q-22 68 -126 67.5t-143 -59t-64 -195.5l-51 -295q-18 -70 -18 -122q0 -36 9 -64z" />
<glyph unicode="P" horiz-adv-x="1150" d="M0 0l252 1434h512q270 0 371 -119q69 -82 69 -229q0 -66 -14 -144q-45 -254 -186.5 -372.5t-411.5 -118.5h-160l-80 -451h-352zM494 803h172q82 0 118.5 25.5t53.5 113.5q6 32 6 56q0 42 -19 58q-29 26 -110 25h-172z" />
<glyph unicode="Q" horiz-adv-x="1198" d="M50 304q-1 22 -1 42q0 25 2 44q4 34 10 71l91 512q8 53 23 104t58 128t104.5 131.5t170 94t246 39.5t231.5 -39.5t135 -94t58 -132.5q15 -69 14 -115v-12q-2 -49 -12 -104l-90 -512q-16 -80 -64 -193l121 -151l-301 -246l-105 135q-115 -43 -254 -43q-100 0 -177 21.5 t-124 53.5t-77.5 79t-43 91t-15.5 96zM423 383q22 -68 126 -68t143 58.5t64 195.5l51 295q18 70 18 122q0 37 -9 65q-22 68 -126 67.5t-143 -59t-64 -195.5l-51 -295q-18 -70 -18 -122q0 -36 9 -64z" />
<glyph unicode="R" horiz-adv-x="1214" d="M0 0l252 1434h512q270 0 371 -119q69 -82 69 -229q0 -66 -14 -144q-27 -150 -83 -248t-161 -166l193 -528h-394l-151 449h-158l-80 -449h-356zM498 803h168q82 0 118.5 25.5t53.5 113.5q6 32 6 56q0 42 -19 58q-27 24 -98 23h-12h-168z" />
<glyph unicode="S" horiz-adv-x="1171" d="M10 426l361 76q-2 -20 -2 -39q0 -72 32 -103q41 -39 125 -38q74 0 129 35q53 35 54 76v3q-2 39 -50.5 73t-118 57.5t-146.5 62.5t-139 86t-94 132q-19 52 -20 113q0 39 9 82q4 27 17 68t54 106.5t99.5 119t163 92t233.5 38.5q123 0 215 -27.5t140 -73.5t79 -103 q30 -55 30 -113v-4q-1 -59 -5 -115l-361 -76v16q0 76 -37 108q-41 36 -123 36q-57 0 -97 -28.5t-40 -65.5t48 -69.5t120 -58.5t150.5 -69t144.5 -93t98 -138q21 -56 21 -122q0 -37 -6 -77q-4 -27 -21.5 -68.5t-66 -106t-114 -118t-179 -92.5t-250.5 -39q-125 0 -218 30 t-140.5 79t-75.5 109q-27 56 -27 114q0 50 8 125z" />
<glyph unicode="T" horiz-adv-x="1212" d="M109 1081h409l-190 -1081h352l190 1081h410l61 353h-1171z" />
<glyph unicode="U" horiz-adv-x="1208" d="M58 304q-1 22 -1 42q0 25 2 44q4 34 11 71l170 973h352l-152 -865q-18 -70 -18 -122q0 -37 9 -64q22 -68 126.5 -68t143 58.5t63.5 195.5l151 865h353l-170 -973q-10 -55 -24.5 -105.5t-58.5 -127t-104.5 -131t-169 -94.5t-245.5 -40q-100 0 -177 21.5t-124.5 53.5 t-78 79t-43 91t-15.5 96z" />
<glyph unicode="V" horiz-adv-x="1187" d="M170 1434l80 -1434h487l580 1434h-369l-360 -889l-49 889h-369z" />
<glyph unicode="W" horiz-adv-x="1658" d="M166 1434l22 -1434h402l244 608l30 -608h402l526 1434h-373l-303 -973l10 973h-295l-329 -973l37 973h-373z" />
<glyph unicode="X" d="M-127 0l571 743l-276 691h391l143 -349l267 349h391l-518 -691l309 -743h-397l-170 410l-314 -410h-397z" />
<glyph unicode="Y" horiz-adv-x="1230" d="M154 1434l247 -910l-92 -524h410l92 524l565 910h-426l-264 -461l-104 461h-428z" />
<glyph unicode="Z" horiz-adv-x="1269" d="M-102 0l800 1081h-516l62 353h1175l-811 -1082h537l-62 -352h-1185z" />
<glyph unicode="[" horiz-adv-x="573" d="M-113 -410h451l43 246h-246l281 1598h246l36 204h-450z" />
<glyph unicode="\" d="M344 1569h229l347 -1774h-230z" />
<glyph unicode="]" horiz-adv-x="573" d="M-113 -410h451l360 2048h-450l-37 -204h246l-281 -1598h-246z" />
<glyph unicode="^" d="M207 1081l575 492l404 -492l-168 -143l-285 348l-407 -348z" />
<glyph unicode="_" d="M-137 -328l35 205h1183l-34 -205h-1184z" />
<glyph unicode="`" horiz-adv-x="608" d="M154 1559l311 -291h280l-210 291h-381z" />
<glyph unicode="a" horiz-adv-x="1187" d="M-10 0h352l53 301h299l-53 -301h352l166 938q16 90 21 156q1 13 0 26q0 54 -13 115q-16 76 -59 124t-133 79.5t-223.5 31.5t-234.5 -31.5t-161.5 -79.5t-103.5 -124t-61.5 -141.5t-34.5 -155.5zM457 655l51 283q14 82 47 114.5t127 32.5t117 -32q14 -20 13 -59 q0 -24 -5 -56l-51 -283h-299z" />
<glyph unicode="b" horiz-adv-x="1200" d="M0 0l252 1434h491q285 0 389 -118q72 -82 72 -231q0 -65 -14 -143q-33 -180 -156 -297q57 -31 85 -103q17 -46 18 -99q0 -32 -7 -66q-33 -199 -157.5 -288t-405.5 -89h-567zM401 291h191q82 0 117.5 19.5t48.5 86.5q4 21 4 38q0 37 -20 51q-28 22 -107 22h-195zM494 803 h172q82 0 118.5 25.5t53.5 113.5q6 32 6 56q0 42 -19 58q-29 26 -110 25h-172z" />
<glyph unicode="c" horiz-adv-x="1146" d="M50 304q-1 22 -1 42q0 25 2 44q4 34 10 71l91 512q8 53 23 104t58 128t104.5 131.5t170 94t246.5 39.5q100 0 177 -21.5t124 -53t77.5 -78.5t43 -90t15.5 -97q2 -27 1.5 -48.5t-1.5 -38.5q-3 -34 -9 -70l-355 -76q5 46 6 81q0 58 -15 90q-24 50 -128 50t-143 -58.5 t-64 -195.5l-51 -295q-18 -70 -18 -122q0 -37 9 -64q22 -68 126 -68t145 50.5t70 171.5l328 -76q-10 -55 -25.5 -105.5t-58.5 -127t-104.5 -131t-170 -94.5t-246.5 -40q-100 0 -177 21.5t-124 53.5t-77.5 79t-43 91t-15.5 96z" />
<glyph unicode="d" horiz-adv-x="1214" d="M0 0l252 1434h518q283 0 377 -117q64 -79 64 -223q0 -69 -15 -152l-80 -448q-45 -258 -180 -376t-418 -118h-518zM414 352h172q82 0 119.5 27t52.5 113l41 225l39 225q6 32 6 56q0 42 -19 58q-29 26 -110 25h-172z" />
<glyph unicode="e" horiz-adv-x="1140" d="M0 0h983l61 352h-618l35 189h440l62 352h-441l33 188h619l61 353h-983z" />
<glyph unicode="f" horiz-adv-x="1126" d="M0 0h365l96 541h461l61 352h-461l33 188h639l61 353h-1003z" />
<glyph unicode="g" horiz-adv-x="1187" d="M50 304q-1 22 -1 42q0 25 2 44q4 34 10 71l91 512q8 53 23 104t58 128t104.5 131.5t170 94t246.5 39.5q100 0 177 -21.5t124 -53t77.5 -78.5t43 -90t15.5 -97q2 -27 1.5 -48.5t-1.5 -38.5q-3 -34 -9 -70l-355 -76q5 46 6 81q0 58 -15 90q-24 50 -128 50t-143 -58.5 t-64 -195.5l-51 -295q-18 -70 -18 -122q0 -37 9 -64q22 -68 126 -68q55 0 92 15.5t57.5 47.5t29.5 60.5t17 73.5h-180l51 287h533l-59 -338q-10 -55 -24.5 -105.5t-58.5 -127t-104.5 -131t-169 -94.5t-246.5 -40q-100 0 -177 21.5t-124 53.5t-77.5 79t-43 91t-15.5 96z" />
<glyph unicode="h" d="M0 0h352l78 446h320l-78 -446h352l252 1434h-352l-111 -635h-319l110 635h-352z" />
<glyph unicode="i" horiz-adv-x="552" d="M0 0h348l252 1434h-348z" />
<glyph unicode="j" horiz-adv-x="1138" d="M-14 304q-1 21 -1 39q0 27 2 47q3 34 9 71l352 76q-5 -46 -5 -82q0 -58 14 -89q24 -50 128.5 -50.5t143.5 58t63 195.5l152 865h352l-170 -973q-10 -55 -24.5 -105.5t-58.5 -127t-104.5 -131t-169 -94.5t-245.5 -40q-100 0 -177 21.5t-124 53.5t-78 79t-44 91t-15 96z " />
<glyph unicode="k" horiz-adv-x="1275" d="M0 0l252 1434h356l-90 -514l465 514h442l-591 -658l368 -776h-444l-215 451l-133 -148l-54 -303h-356z" />
<glyph unicode="l" horiz-adv-x="1058" d="M0 0h932l61 352h-579l190 1082h-352z" />
<glyph unicode="m" horiz-adv-x="1622" d="M0 0h352l170 958l64 -958h245l404 958l-170 -958h352l252 1434h-539l-292 -701l-47 701h-539z" />
<glyph unicode="n" horiz-adv-x="1294" d="M0 0h352l140 791l184 -791h414l251 1434h-352l-137 -785l-186 785h-414z" />
<glyph unicode="o" horiz-adv-x="1191" d="M50 304q-1 22 -1 42q0 25 2 44q4 34 10 71l91 512q8 53 23 104t58 128t104.5 131.5t170 94t246 39.5t231.5 -39.5t135 -94t58 -132.5q15 -69 14 -115v-12q-2 -49 -12 -104l-90 -512q-10 -55 -24.5 -105.5t-58.5 -127t-104.5 -131t-169 -94.5t-246.5 -40q-100 0 -177 21.5 t-124 53.5t-77.5 79t-43 91t-15.5 96zM423 383q22 -68 126 -68t143 58.5t64 195.5l51 295q18 70 18 122q0 37 -9 65q-22 68 -126 67.5t-143 -59t-64 -195.5l-51 -295q-18 -70 -18 -122q0 -36 9 -64z" />
<glyph unicode="p" horiz-adv-x="1150" d="M0 0l252 1434h512q270 0 371 -119q69 -82 69 -229q0 -66 -14 -144q-45 -254 -186.5 -372.5t-411.5 -118.5h-160l-80 -451h-352zM494 803h172q82 0 118.5 25.5t53.5 113.5q6 32 6 56q0 42 -19 58q-29 26 -110 25h-172z" />
<glyph unicode="q" horiz-adv-x="1198" d="M50 304q-1 22 -1 42q0 25 2 44q4 34 10 71l91 512q8 53 23 104t58 128t104.5 131.5t170 94t246 39.5t231.5 -39.5t135 -94t58 -132.5q15 -69 14 -115v-12q-2 -49 -12 -104l-90 -512q-16 -80 -64 -193l121 -151l-301 -246l-105 135q-115 -43 -254 -43q-100 0 -177 21.5 t-124 53.5t-77.5 79t-43 91t-15.5 96zM423 383q22 -68 126 -68t143 58.5t64 195.5l51 295q18 70 18 122q0 37 -9 65q-22 68 -126 67.5t-143 -59t-64 -195.5l-51 -295q-18 -70 -18 -122q0 -36 9 -64z" />
<glyph unicode="r" horiz-adv-x="1214" d="M0 0l252 1434h512q270 0 371 -119q69 -82 69 -229q0 -66 -14 -144q-27 -150 -83 -248t-161 -166l193 -528h-394l-151 449h-158l-80 -449h-356zM498 803h168q82 0 118.5 25.5t53.5 113.5q6 32 6 56q0 42 -19 58q-27 24 -98 23h-12h-168z" />
<glyph unicode="s" horiz-adv-x="1171" d="M10 426l361 76q-2 -20 -2 -39q0 -72 32 -103q41 -39 125 -38q74 0 129 35q53 35 54 76v3q-2 39 -50.5 73t-118 57.5t-146.5 62.5t-139 86t-94 132q-19 52 -20 113q0 39 9 82q4 27 17 68t54 106.5t99.5 119t163 92t233.5 38.5q123 0 215 -27.5t140 -73.5t79 -103 q30 -55 30 -113v-4q-1 -59 -5 -115l-361 -76v16q0 76 -37 108q-41 36 -123 36q-57 0 -97 -28.5t-40 -65.5t48 -69.5t120 -58.5t150.5 -69t144.5 -93t98 -138q21 -56 21 -122q0 -37 -6 -77q-4 -27 -21.5 -68.5t-66 -106t-114 -118t-179 -92.5t-250.5 -39q-125 0 -218 30 t-140.5 79t-75.5 109q-27 56 -27 114q0 50 8 125z" />
<glyph unicode="t" horiz-adv-x="1212" d="M109 1081h409l-190 -1081h352l190 1081h410l61 353h-1171z" />
<glyph unicode="u" horiz-adv-x="1208" d="M58 304q-1 22 -1 42q0 25 2 44q4 34 11 71l170 973h352l-152 -865q-18 -70 -18 -122q0 -37 9 -64q22 -68 126.5 -68t143 58.5t63.5 195.5l151 865h353l-170 -973q-10 -55 -24.5 -105.5t-58.5 -127t-104.5 -131t-169 -94.5t-245.5 -40q-100 0 -177 21.5t-124.5 53.5 t-78 79t-43 91t-15.5 96z" />
<glyph unicode="v" horiz-adv-x="1187" d="M170 1434l80 -1434h487l580 1434h-369l-360 -889l-49 889h-369z" />
<glyph unicode="w" horiz-adv-x="1658" d="M166 1434l22 -1434h402l244 608l30 -608h402l526 1434h-373l-303 -973l10 973h-295l-329 -973l37 973h-373z" />
<glyph unicode="x" d="M-127 0l571 743l-276 691h391l143 -349l267 349h391l-518 -691l309 -743h-397l-170 410l-314 -410h-397z" />
<glyph unicode="y" horiz-adv-x="1230" d="M154 1434l247 -910l-92 -524h410l92 524l565 910h-426l-264 -461l-104 461h-428z" />
<glyph unicode="z" horiz-adv-x="1269" d="M-102 0l800 1081h-516l62 353h1175l-811 -1082h537l-62 -352h-1185z" />
<glyph unicode="{" horiz-adv-x="542" d="M13.5 -13q-11.5 -79 4 -146.5t90 -118t209.5 -68.5l45 248q-76 33 -94 97t6.5 139t51 165t41 174t-24.5 168q59 72 81.5 166t22.5 176t4.5 161t44.5 142.5t128 95.5l45 250q-164 -23 -262.5 -87t-128 -146t-43 -181.5t-14.5 -188.5t-38 -171t-114 -125l-33 -186 q55 -37 66.5 -102.5t-6 -140.5t-44 -158.5t-38 -162.5z" />
<glyph unicode="|" horiz-adv-x="368" d="M-82 -348h205l340 1925h-205z" />
<glyph unicode="}" horiz-adv-x="542" d="M-92 -346q195 27 295 110.5t120.5 193.5t23.5 222.5t36 217t123 153.5l33 186q-55 37 -66.5 103.5t7 140.5t45 158t37.5 162.5t-4 147.5t-90 119t-210 68l-45 -250q76 -33 94.5 -97t-6.5 -139t-51.5 -164t-39.5 -173t26 -168q-59 -72 -83 -166t-23 -177t-4 -162 t-45 -142.5t-128 -95.5z" />
<glyph unicode="~" d="M104 743q33 -100 102.5 -144t151.5 -38t174.5 25.5t169 44t136 19.5t75.5 -52q8 -18 32 -25.5t44 0.5l131 39q66 23 54 80q-33 100 -103 144.5t-151.5 38t-174 -26t-169 -44t-136 -19t-78.5 52.5q-4 18 -28.5 26t-46.5 -2l-129 -39q-68 -23 -54 -80z" />
<glyph unicode="&#xa1;" horiz-adv-x="679" d="M78 -408h438l127 983h-348zM311 674h353l61 352h-352z" />
<glyph unicode="&#xa2;" horiz-adv-x="968" d="M64.5 517.5q1.5 60.5 6.5 100t15 99.5q12 70 25.5 121t45 121.5t74.5 117.5t116 86t167 51l39 220h170l-39 -220q315 -39 272 -366l-243 -53q4 53 2 90t-19.5 59.5t-52.5 30.5l-90 -514q55 12 80.5 52t52.5 130l223 -59q-74 -324 -399 -363l-39 -221h-170l39 221 q-78 10 -133 37t-84 70t-44.5 86t-14 103.5zM306 544.5q9 -65.5 77 -83.5l90 514q-72 -18 -101.5 -75.5t-49.5 -182.5q-25 -107 -16 -172.5z" />
<glyph unicode="&#xa3;" horiz-adv-x="1198" d="M31 0l59 332q166 100 221 243h-178l55 324h193l27 148q14 76 47.5 147.5t89 137t143.5 104.5t197 39q178 0 258 -86t76 -224l-312 -96q-6 47 -23.5 63.5t-56.5 16.5q-76 0 -96 -115l-24 -135h194l-55 -324h-205q-49 -143 -184 -243h565l-59 -332h-932z" />
<glyph unicode="&#xa8;" d="M411.5 1311q8.5 47 49.5 81.5t88 34.5t75.5 -34.5t20.5 -81.5q-10 -47 -50 -82t-87 -35t-76 35t-20.5 82zM842 1311q8 47 49 81.5t88 34.5t75.5 -34.5t20.5 -81.5q-10 -47 -50 -82t-87 -35t-75.5 35t-20.5 82z" />
<glyph unicode="&#xaa;" horiz-adv-x="1187" d="M-10 0h352l53 301h299l-53 -301h352l166 938q16 90 21 156q1 13 0 26q0 54 -13 115q-16 76 -59 124t-133 79.5t-223.5 31.5t-234.5 -31.5t-161.5 -79.5t-103.5 -124t-61.5 -141.5t-34.5 -155.5zM457 655l51 283q14 82 47 114.5t127 32.5t117 -32q14 -20 13 -59 q0 -24 -5 -56l-51 -283h-299z" />
<glyph unicode="&#xab;" horiz-adv-x="1165" d="M29 821l575 490l119 -142l-410 -348l287 -346l-168 -143zM418 821l575 490l119 -142l-410 -348l287 -346l-168 -143z" />
<glyph unicode="&#xad;" horiz-adv-x="1347" d="M127 494l63 352h1061l-63 -352h-1061z" />
<glyph unicode="&#xb0;" horiz-adv-x="589" d="M149.5 1314.5q20.5 112.5 115.5 193.5t208 81t179.5 -79.5t45.5 -194.5q-20 -113 -114.5 -194t-207 -81t-180 81t-47 193.5zM328 1315q-6 -39 17.5 -67.5t62 -28.5t72.5 28.5t40 67.5q8 39 -16.5 67.5t-63.5 28.5t-71.5 -28.5t-40.5 -67.5z" />
<glyph unicode="&#xb2;" horiz-adv-x="1167" d="M-33 0l41 238q23 131 105 242.5t185 185t205.5 132t180.5 111t94 95.5q18 49 -2 81.5t-78 32.5q-135 0 -184 -157l-342 67q18 76 52 142.5t98.5 140t177 116.5t262.5 43q129 0 217 -39.5t125 -91t51 -119t12 -105.5t-8 -68q-18 -109 -89 -198t-164 -151.5t-188 -117 t-179 -118t-119 -130.5h602l-59 -332h-996z" />
<glyph unicode="&#xb3;" horiz-adv-x="1208" d="M75 288.5q1 57.5 1 110.5l362 76q2 -92 33 -126t107 -34q63 0 107 51.5t24 112.5q-16 49 -68.5 75t-173.5 40l43 248q127 14 187.5 38.5t95.5 73.5q41 63 15 113.5t-89 50.5q-76 0 -118 -33.5t-77 -126.5l-334 76q115 436 592 436q236 0 337.5 -129t60.5 -319 q-25 -111 -87.5 -188.5t-131.5 -116.5q55 -39 89.5 -117t20.5 -188q-25 -188 -172 -318.5t-383 -130.5q-123 0 -212 28.5t-133 76t-70.5 105.5t-25.5 115.5z" />
<glyph unicode="&#xb4;" horiz-adv-x="608" d="M113 1268h280l414 291h-381z" />
<glyph unicode="&#xb7;" horiz-adv-x="475" d="M-49 537h352l62 352h-353z" />
<glyph unicode="&#xb9;" horiz-adv-x="778" d="M145 1024h211l-180 -1024h350l252 1434h-248l-346 -189z" />
<glyph unicode="&#xba;" horiz-adv-x="1191" d="M50 304q-1 22 -1 42q0 25 2 44q4 34 10 71l91 512q8 53 23 104t58 128t104.5 131.5t170 94t246 39.5t231.5 -39.5t135 -94t58 -132.5q15 -69 14 -115v-12q-2 -49 -12 -104l-90 -512q-10 -55 -24.5 -105.5t-58.5 -127t-104.5 -131t-169 -94.5t-246.5 -40q-100 0 -177 21.5 t-124 53.5t-77.5 79t-43 91t-15.5 96zM423 383q22 -68 126 -68t143 58.5t64 195.5l51 295q18 70 18 122q0 37 -9 65q-22 68 -126 67.5t-143 -59t-64 -195.5l-51 -295q-18 -70 -18 -122q0 -36 9 -64z" />
<glyph unicode="&#xbb;" horiz-adv-x="1165" d="M174 487l410 347l-287 346l168 143l405 -489l-577 -490zM569 483l410 346l-287 347l168 143l406 -490l-578 -489z" />
<glyph unicode="&#xbf;" d="M127 -54q2 38 8 68q18 109 76.5 199t121 141.5t134.5 119t104 130.5h349q-37 -96 -94.5 -169t-107.5 -109.5t-106.5 -96t-89.5 -131.5q-29 -61 -7 -108t81 -47q158 0 205 200l321 -77q-84 -475 -590 -476q-129 0 -217 40t-124.5 91.5t-51 119t-12.5 105.5zM588 709h352 l61 352h-352z" />
<glyph unicode="&#xc0;" horiz-adv-x="1187" d="M-10 0h352l53 301h299l-53 -301h352l166 938q16 90 20.5 155.5t-12 141.5t-59.5 124t-133 79.5t-223.5 31.5t-234.5 -31.5t-161.5 -79.5t-103.5 -124t-61.5 -141.5t-34.5 -155.5zM455 1968l311 -291h281l-211 291h-381zM457 655l51 283q14 82 47 114.5t127 32.5 t116.5 -32.5t8.5 -114.5l-51 -283h-299z" />
<glyph unicode="&#xc1;" horiz-adv-x="1187" d="M-10 0h352l53 301h299l-53 -301h352l166 938q16 90 20.5 155.5t-12 141.5t-59.5 124t-133 79.5t-223.5 31.5t-234.5 -31.5t-161.5 -79.5t-103.5 -124t-61.5 -141.5t-34.5 -155.5zM403 1677h281l414 291h-381zM457 655l51 283q14 82 47 114.5t127 32.5t116.5 -32.5 t8.5 -114.5l-51 -283h-299z" />
<glyph unicode="&#xc2;" horiz-adv-x="1187" d="M-10 0h352l53 301h299l-53 -301h352l166 938q16 90 20.5 155.5t-12 141.5t-59.5 124t-133 79.5t-223.5 31.5t-234.5 -31.5t-161.5 -79.5t-103.5 -124t-61.5 -141.5t-34.5 -155.5zM412 1679l446 381l316 -381l-170 -143l-195 238l-281 -238zM457 655l51 283 q14 82 47 114.5t127 32.5t116.5 -32.5t8.5 -114.5l-51 -283h-299z" />
<glyph unicode="&#xc3;" horiz-adv-x="1187" d="M-10 0h352l53 301h299l-53 -301h352l166 938q16 90 20.5 155.5t-12 141.5t-59.5 124t-133 79.5t-223.5 31.5t-234.5 -31.5t-161.5 -79.5t-103.5 -124t-61.5 -141.5t-34.5 -155.5zM383 1753q35 -111 105.5 -150.5t149.5 -26.5t155.5 34.5t138 17.5t82.5 -59l194 59 q-35 111 -105.5 151t-149.5 26.5t-155.5 -35t-137 -17.5t-80.5 59zM457 655l51 283q14 82 47 114.5t127 32.5t116.5 -32.5t8.5 -114.5l-51 -283h-299z" />
<glyph unicode="&#xc4;" horiz-adv-x="1187" d="M-10 0h352l53 301h299l-53 -301h352l166 938q16 90 20.5 155.5t-12 141.5t-59.5 124t-133 79.5t-223.5 31.5t-234.5 -31.5t-161.5 -79.5t-103.5 -124t-61.5 -141.5t-34.5 -155.5zM457 655l51 283q14 82 47 114.5t127 32.5t116.5 -32.5t8.5 -114.5l-51 -283h-299z M469 1720q8 47 49 82t88 35t76 -35t20 -82q-10 -47 -50 -81.5t-87 -34.5t-75.5 34.5t-20.5 81.5zM899 1720q8 47 49 82t88 35t76 -35t21 -82q-10 -47 -50.5 -81.5t-87.5 -34.5t-75.5 34.5t-20.5 81.5z" />
<glyph unicode="&#xc5;" horiz-adv-x="1187" d="M-10 0h352l53 301h299l-53 -301h352l166 938q16 90 20.5 155.5t-12 141.5t-59.5 124t-133 79.5t-223.5 31.5t-234.5 -31.5t-161.5 -79.5t-103.5 -124t-61.5 -141.5t-34.5 -155.5zM457 655l51 283q14 82 47 114.5t127 32.5t116.5 -32.5t8.5 -114.5l-51 -283h-299z M573 1802q14 100 92 169t177 69q100 0 157.5 -68.5t42.5 -169.5q-14 -96 -91 -163.5t-177 -67.5q-98 0 -156.5 67.5t-44.5 163.5zM719 1802q-4 -35 18.5 -61.5t57 -26.5t65.5 26.5t35 61.5q6 35 -17.5 61.5t-58.5 26.5t-64.5 -26.5t-35.5 -61.5z" />
<glyph unicode="&#xc8;" horiz-adv-x="1140" d="M0 0h983l61 352h-618l35 189h440l62 352h-441l33 188h619l61 353h-983zM469 1968l311 -291h281l-211 291h-381z" />
<glyph unicode="&#xc9;" horiz-adv-x="1140" d="M0 0h983l61 352h-618l35 189h440l62 352h-441l33 188h619l61 353h-983zM418 1677h280l414 291h-381z" />
<glyph unicode="&#xca;" horiz-adv-x="1140" d="M0 0h983l61 352h-618l35 189h440l62 352h-441l33 188h619l61 353h-983zM426 1679l446 381l316 -381l-170 -143l-195 238l-280 -238z" />
<glyph unicode="&#xcb;" horiz-adv-x="1140" d="M0 0h983l61 352h-618l35 189h440l62 352h-441l33 188h619l61 353h-983zM483.5 1720q8.5 47 49 82t88 35t76 -35t20.5 -82q-10 -47 -50 -81.5t-87.5 -34.5t-76 34.5t-20 81.5zM913.5 1720q8.5 47 49.5 82t88 35t75.5 -35t20.5 -82q-10 -47 -50 -81.5t-87 -34.5t-76 34.5 t-20.5 81.5z" />
<glyph unicode="&#xcc;" horiz-adv-x="552" d="M0 0h348l252 1434h-348zM131 1968l311 -291h281l-211 291h-381z" />
<glyph unicode="&#xcd;" horiz-adv-x="552" d="M0 0h348l252 1434h-348zM80 1677h280l414 291h-381z" />
<glyph unicode="&#xce;" horiz-adv-x="552" d="M0 0h348l252 1434h-348zM88 1679l447 381l315 -381l-170 -143l-195 238l-280 -238z" />
<glyph unicode="&#xcf;" horiz-adv-x="552" d="M0 0h348l252 1434h-348zM145.5 1720q8.5 47 49.5 82t88 35t75.5 -35t20.5 -82q-10 -47 -50 -81.5t-87 -34.5t-76 34.5t-20.5 81.5zM575.5 1720q8.5 47 49.5 82t88 35t75.5 -35t20.5 -82q-10 -47 -50 -81.5t-87 -34.5t-76 34.5t-20.5 81.5z" />
<glyph unicode="&#xd1;" horiz-adv-x="1294" d="M0 0h352l140 791l184 -791h414l251 1434h-352l-137 -785l-186 785h-414zM451 1753q35 -111 105.5 -150.5t149 -26.5t155.5 34.5t138.5 17.5t81.5 -59l195 59q-35 111 -105.5 151t-149.5 26.5t-156 -35t-137 -17.5t-81 59z" />
<glyph unicode="&#xd2;" horiz-adv-x="1191" d="M50 304q-3 52 1 86t10 71l91 512q8 53 23 104t58 128t104.5 131.5t170 94t246 39.5t231.5 -39.5t135 -94t57.5 -132.5t14.5 -127t-12 -104l-90 -512q-10 -55 -24.5 -105.5t-58.5 -127t-104.5 -131t-169 -94.5t-246.5 -40q-100 0 -177 21.5t-124 53.5t-77.5 79t-43 91 t-15.5 96zM422.5 383q21.5 -68 126 -68t143.5 58.5t64 195.5l51 295q31 119 9.5 186.5t-126 67.5t-143.5 -58.5t-64 -195.5l-51 -295q-31 -118 -9.5 -186zM451 1968l311 -291h280l-211 291h-380z" />
<glyph unicode="&#xd3;" horiz-adv-x="1191" d="M50 304q-3 52 1 86t10 71l91 512q8 53 23 104t58 128t104.5 131.5t170 94t246 39.5t231.5 -39.5t135 -94t57.5 -132.5t14.5 -127t-12 -104l-90 -512q-10 -55 -24.5 -105.5t-58.5 -127t-104.5 -131t-169 -94.5t-246.5 -40q-100 0 -177 21.5t-124 53.5t-77.5 79t-43 91 t-15.5 96zM399 1677h281l414 291h-381zM422.5 383q21.5 -68 126 -68t143.5 58.5t64 195.5l51 295q31 119 9.5 186.5t-126 67.5t-143.5 -58.5t-64 -195.5l-51 -295q-31 -118 -9.5 -186z" />
<glyph unicode="&#xd4;" horiz-adv-x="1191" d="M50 304q-3 52 1 86t10 71l91 512q8 53 23 104t58 128t104.5 131.5t170 94t246 39.5t231.5 -39.5t135 -94t57.5 -132.5t14.5 -127t-12 -104l-90 -512q-10 -55 -24.5 -105.5t-58.5 -127t-104.5 -131t-169 -94.5t-246.5 -40q-100 0 -177 21.5t-124 53.5t-77.5 79t-43 91 t-15.5 96zM408 1679l446 381l315 -381l-170 -143l-194 238l-281 -238zM422.5 383q21.5 -68 126 -68t143.5 58.5t64 195.5l51 295q31 119 9.5 186.5t-126 67.5t-143.5 -58.5t-64 -195.5l-51 -295q-31 -118 -9.5 -186z" />
<glyph unicode="&#xd5;" horiz-adv-x="1191" d="M50 304q-3 52 1 86t10 71l91 512q8 53 23 104t58 128t104.5 131.5t170 94t246 39.5t231.5 -39.5t135 -94t57.5 -132.5t14.5 -127t-12 -104l-90 -512q-10 -55 -24.5 -105.5t-58.5 -127t-104.5 -131t-169 -94.5t-246.5 -40q-100 0 -177 21.5t-124 53.5t-77.5 79t-43 91 t-15.5 96zM379 1753q35 -111 105.5 -150.5t149.5 -26.5t155.5 34.5t138 17.5t82.5 -59l194 59q-35 111 -105.5 151t-149.5 26.5t-155.5 -35t-137 -17.5t-81.5 59zM422.5 383q21.5 -68 126 -68t143.5 58.5t64 195.5l51 295q31 119 9.5 186.5t-126 67.5t-143.5 -58.5 t-64 -195.5l-51 -295q-31 -118 -9.5 -186z" />
<glyph unicode="&#xd6;" horiz-adv-x="1191" d="M50 304q-3 52 1 86t10 71l91 512q8 53 23 104t58 128t104.5 131.5t170 94t246 39.5t231.5 -39.5t135 -94t57.5 -132.5t14.5 -127t-12 -104l-90 -512q-10 -55 -24.5 -105.5t-58.5 -127t-104.5 -131t-169 -94.5t-246.5 -40q-100 0 -177 21.5t-124 53.5t-77.5 79t-43 91 t-15.5 96zM422.5 383q21.5 -68 126 -68t143.5 58.5t64 195.5l51 295q31 119 9.5 186.5t-126 67.5t-143.5 -58.5t-64 -195.5l-51 -295q-31 -118 -9.5 -186zM465 1720q8 47 49 82t88 35t76 -35t20 -82q-10 -47 -50 -81.5t-87 -34.5t-75.5 34.5t-20.5 81.5zM895 1720 q8 47 49 82t88 35t76 -35t20 -82q-10 -47 -50 -81.5t-87 -34.5t-75.5 34.5t-20.5 81.5z" />
<glyph unicode="&#xd7;" d="M33 375l346 295l-242 295l291 247l244 -292l346 292l205 -247l-344 -295l239 -295l-291 -248l-243 293l-346 -293z" />
<glyph unicode="&#xd8;" horiz-adv-x="1232" d="M-133 10l115 152q-55 119 -23 299l90 512q8 53 23.5 104t58.5 128t104.5 131.5t170 94t245.5 39.5q166 0 271 -57l84 111l163 -101l-114 -151q51 -111 22 -299l-90 -512q-10 -55 -24.5 -105.5t-58.5 -127t-104.5 -131t-169 -94.5t-245.5 -40q-170 0 -276 60l-84 -111z M342 643l340 453q-33 23 -94 22q-104 0 -143 -58.5t-64 -195.5zM348 340q33 -25 98 -25q104 0 143.5 58.5t63.5 195.5l39 224z" />
<glyph unicode="&#xd9;" horiz-adv-x="1208" d="M58 304q-3 52 1 86t11 71l170 973h352l-152 -865q-31 -119 -9 -186.5t126.5 -67.5t143 58.5t63.5 195.5l151 865h353l-170 -973q-10 -55 -24.5 -105.5t-58.5 -127t-104.5 -131t-169 -94.5t-245.5 -40q-100 0 -177 21.5t-124.5 53.5t-78 79t-43 91t-15.5 96zM459 1968 l311 -291h281l-211 291h-381z" />
<glyph unicode="&#xda;" horiz-adv-x="1208" d="M58 304q-3 52 1 86t11 71l170 973h352l-152 -865q-31 -119 -9 -186.5t126.5 -67.5t143 58.5t63.5 195.5l151 865h353l-170 -973q-10 -55 -24.5 -105.5t-58.5 -127t-104.5 -131t-169 -94.5t-245.5 -40q-100 0 -177 21.5t-124.5 53.5t-78 79t-43 91t-15.5 96zM408 1677h280 l414 291h-381z" />
<glyph unicode="&#xdb;" horiz-adv-x="1208" d="M58 304q-3 52 1 86t11 71l170 973h352l-152 -865q-31 -119 -9 -186.5t126.5 -67.5t143 58.5t63.5 195.5l151 865h353l-170 -973q-10 -55 -24.5 -105.5t-58.5 -127t-104.5 -131t-169 -94.5t-245.5 -40q-100 0 -177 21.5t-124.5 53.5t-78 79t-43 91t-15.5 96zM416 1679 l446 381l316 -381l-170 -143l-195 238l-281 -238z" />
<glyph unicode="&#xdc;" horiz-adv-x="1208" d="M58 304q-3 52 1 86t11 71l170 973h352l-152 -865q-31 -119 -9 -186.5t126.5 -67.5t143 58.5t63.5 195.5l151 865h353l-170 -973q-10 -55 -24.5 -105.5t-58.5 -127t-104.5 -131t-169 -94.5t-245.5 -40q-100 0 -177 21.5t-124.5 53.5t-78 79t-43 91t-15.5 96zM473 1720 q8 47 49 82t88 35t76 -35t21 -82q-10 -47 -50.5 -81.5t-87.5 -34.5t-75.5 34.5t-20.5 81.5zM903 1720q8 47 49 82t88 35t76 -35t21 -82q-10 -47 -50 -81.5t-87.5 -34.5t-76 34.5t-20.5 81.5z" />
<glyph unicode="&#xdd;" horiz-adv-x="1230" d="M654 1594h280l414 291h-381zM154 1434l247 -910l-92 -524h410l92 524l565 910h-426l-264 -461l-104 461h-428z" />
<glyph unicode="&#xe0;" horiz-adv-x="1187" d="M-10 0h352l53 301h299l-53 -301h352l166 938q16 90 20.5 155.5t-12 141.5t-59.5 124t-133 79.5t-223.5 31.5t-234.5 -31.5t-161.5 -79.5t-103.5 -124t-61.5 -141.5t-34.5 -155.5zM455 1968l311 -291h281l-211 291h-381zM457 655l51 283q14 82 47 114.5t127 32.5 t116.5 -32.5t8.5 -114.5l-51 -283h-299z" />
<glyph unicode="&#xe1;" horiz-adv-x="1187" d="M-10 0h352l53 301h299l-53 -301h352l166 938q16 90 20.5 155.5t-12 141.5t-59.5 124t-133 79.5t-223.5 31.5t-234.5 -31.5t-161.5 -79.5t-103.5 -124t-61.5 -141.5t-34.5 -155.5zM403 1677h281l414 291h-381zM457 655l51 283q14 82 47 114.5t127 32.5t116.5 -32.5 t8.5 -114.5l-51 -283h-299z" />
<glyph unicode="&#xe2;" horiz-adv-x="1187" d="M-10 0h352l53 301h299l-53 -301h352l166 938q16 90 20.5 155.5t-12 141.5t-59.5 124t-133 79.5t-223.5 31.5t-234.5 -31.5t-161.5 -79.5t-103.5 -124t-61.5 -141.5t-34.5 -155.5zM412 1679l446 381l316 -381l-170 -143l-195 238l-281 -238zM457 655l51 283 q14 82 47 114.5t127 32.5t116.5 -32.5t8.5 -114.5l-51 -283h-299z" />
<glyph unicode="&#xe3;" horiz-adv-x="1187" d="M-10 0h352l53 301h299l-53 -301h352l166 938q16 90 20.5 155.5t-12 141.5t-59.5 124t-133 79.5t-223.5 31.5t-234.5 -31.5t-161.5 -79.5t-103.5 -124t-61.5 -141.5t-34.5 -155.5zM383 1753q35 -111 105.5 -150.5t149.5 -26.5t155.5 34.5t138 17.5t82.5 -59l194 59 q-35 111 -105.5 151t-149.5 26.5t-155.5 -35t-137 -17.5t-80.5 59zM457 655l51 283q14 82 47 114.5t127 32.5t116.5 -32.5t8.5 -114.5l-51 -283h-299z" />
<glyph unicode="&#xe4;" horiz-adv-x="1187" d="M-10 0h352l53 301h299l-53 -301h352l166 938q16 90 20.5 155.5t-12 141.5t-59.5 124t-133 79.5t-223.5 31.5t-234.5 -31.5t-161.5 -79.5t-103.5 -124t-61.5 -141.5t-34.5 -155.5zM457 655l51 283q14 82 47 114.5t127 32.5t116.5 -32.5t8.5 -114.5l-51 -283h-299z M469 1720q8 47 49 82t88 35t76 -35t20 -82q-10 -47 -50 -81.5t-87 -34.5t-75.5 34.5t-20.5 81.5zM899 1720q8 47 49 82t88 35t76 -35t21 -82q-10 -47 -50.5 -81.5t-87.5 -34.5t-75.5 34.5t-20.5 81.5z" />
<glyph unicode="&#xe5;" horiz-adv-x="1187" d="M-10 0h352l53 301h299l-53 -301h352l166 938q16 90 20.5 155.5t-12 141.5t-59.5 124t-133 79.5t-223.5 31.5t-234.5 -31.5t-161.5 -79.5t-103.5 -124t-61.5 -141.5t-34.5 -155.5zM457 655l51 283q14 82 47 114.5t127 32.5t116.5 -32.5t8.5 -114.5l-51 -283h-299z M573 1802q14 100 92 169t177 69q100 0 157.5 -68.5t42.5 -169.5q-14 -96 -91 -163.5t-177 -67.5q-98 0 -156.5 67.5t-44.5 163.5zM719 1802q-4 -35 18.5 -61.5t57 -26.5t65.5 26.5t35 61.5q6 35 -17.5 61.5t-58.5 26.5t-64.5 -26.5t-35.5 -61.5z" />
<glyph unicode="&#xe8;" horiz-adv-x="1140" d="M0 0h983l61 352h-618l35 189h440l62 352h-441l33 188h619l61 353h-983zM469 1968l311 -291h281l-211 291h-381z" />
<glyph unicode="&#xe9;" horiz-adv-x="1140" d="M0 0h983l61 352h-618l35 189h440l62 352h-441l33 188h619l61 353h-983zM418 1677h280l414 291h-381z" />
<glyph unicode="&#xea;" horiz-adv-x="1140" d="M0 0h983l61 352h-618l35 189h440l62 352h-441l33 188h619l61 353h-983zM426 1679l446 381l316 -381l-170 -143l-195 238l-280 -238z" />
<glyph unicode="&#xeb;" horiz-adv-x="1140" d="M0 0h983l61 352h-618l35 189h440l62 352h-441l33 188h619l61 353h-983zM483.5 1720q8.5 47 49 82t88 35t76 -35t20.5 -82q-10 -47 -50 -81.5t-87.5 -34.5t-76 34.5t-20 81.5zM913.5 1720q8.5 47 49.5 82t88 35t75.5 -35t20.5 -82q-10 -47 -50 -81.5t-87 -34.5t-76 34.5 t-20.5 81.5z" />
<glyph unicode="&#xec;" horiz-adv-x="552" d="M0 0h348l252 1434h-348zM131 1968l311 -291h281l-211 291h-381z" />
<glyph unicode="&#xed;" horiz-adv-x="552" d="M0 0h348l252 1434h-348zM80 1677h280l414 291h-381z" />
<glyph unicode="&#xee;" horiz-adv-x="552" d="M0 0h348l252 1434h-348zM88 1679l447 381l315 -381l-170 -143l-195 238l-280 -238z" />
<glyph unicode="&#xef;" horiz-adv-x="552" d="M0 0h348l252 1434h-348zM145.5 1720q8.5 47 49.5 82t88 35t75.5 -35t20.5 -82q-10 -47 -50 -81.5t-87 -34.5t-76 34.5t-20.5 81.5zM575.5 1720q8.5 47 49.5 82t88 35t75.5 -35t20.5 -82q-10 -47 -50 -81.5t-87 -34.5t-76 34.5t-20.5 81.5z" />
<glyph unicode="&#xf1;" horiz-adv-x="1294" d="M0 0h352l140 791l184 -791h414l251 1434h-352l-137 -785l-186 785h-414zM451 1753q35 -111 105.5 -150.5t149 -26.5t155.5 34.5t138.5 17.5t81.5 -59l195 59q-35 111 -105.5 151t-149.5 26.5t-156 -35t-137 -17.5t-81 59z" />
<glyph unicode="&#xf2;" horiz-adv-x="1191" d="M50 304q-3 52 1 86t10 71l91 512q8 53 23 104t58 128t104.5 131.5t170 94t246 39.5t231.5 -39.5t135 -94t57.5 -132.5t14.5 -127t-12 -104l-90 -512q-10 -55 -24.5 -105.5t-58.5 -127t-104.5 -131t-169 -94.5t-246.5 -40q-100 0 -177 21.5t-124 53.5t-77.5 79t-43 91 t-15.5 96zM422.5 383q21.5 -68 126 -68t143.5 58.5t64 195.5l51 295q31 119 9.5 186.5t-126 67.5t-143.5 -58.5t-64 -195.5l-51 -295q-31 -118 -9.5 -186zM451 1968l311 -291h280l-211 291h-380z" />
<glyph unicode="&#xf3;" horiz-adv-x="1191" d="M50 304q-3 52 1 86t10 71l91 512q8 53 23 104t58 128t104.5 131.5t170 94t246 39.5t231.5 -39.5t135 -94t57.5 -132.5t14.5 -127t-12 -104l-90 -512q-10 -55 -24.5 -105.5t-58.5 -127t-104.5 -131t-169 -94.5t-246.5 -40q-100 0 -177 21.5t-124 53.5t-77.5 79t-43 91 t-15.5 96zM399 1677h281l414 291h-381zM422.5 383q21.5 -68 126 -68t143.5 58.5t64 195.5l51 295q31 119 9.5 186.5t-126 67.5t-143.5 -58.5t-64 -195.5l-51 -295q-31 -118 -9.5 -186z" />
<glyph unicode="&#xf4;" horiz-adv-x="1191" d="M50 304q-3 52 1 86t10 71l91 512q8 53 23 104t58 128t104.5 131.5t170 94t246 39.5t231.5 -39.5t135 -94t57.5 -132.5t14.5 -127t-12 -104l-90 -512q-10 -55 -24.5 -105.5t-58.5 -127t-104.5 -131t-169 -94.5t-246.5 -40q-100 0 -177 21.5t-124 53.5t-77.5 79t-43 91 t-15.5 96zM408 1679l446 381l315 -381l-170 -143l-194 238l-281 -238zM422.5 383q21.5 -68 126 -68t143.5 58.5t64 195.5l51 295q31 119 9.5 186.5t-126 67.5t-143.5 -58.5t-64 -195.5l-51 -295q-31 -118 -9.5 -186z" />
<glyph unicode="&#xf5;" horiz-adv-x="1191" d="M50 304q-3 52 1 86t10 71l91 512q8 53 23 104t58 128t104.5 131.5t170 94t246 39.5t231.5 -39.5t135 -94t57.5 -132.5t14.5 -127t-12 -104l-90 -512q-10 -55 -24.5 -105.5t-58.5 -127t-104.5 -131t-169 -94.5t-246.5 -40q-100 0 -177 21.5t-124 53.5t-77.5 79t-43 91 t-15.5 96zM379 1753q35 -111 105.5 -150.5t149.5 -26.5t155.5 34.5t138 17.5t82.5 -59l194 59q-35 111 -105.5 151t-149.5 26.5t-155.5 -35t-137 -17.5t-81.5 59zM422.5 383q21.5 -68 126 -68t143.5 58.5t64 195.5l51 295q31 119 9.5 186.5t-126 67.5t-143.5 -58.5 t-64 -195.5l-51 -295q-31 -118 -9.5 -186z" />
<glyph unicode="&#xf6;" horiz-adv-x="1191" d="M50 304q-3 52 1 86t10 71l91 512q8 53 23 104t58 128t104.5 131.5t170 94t246 39.5t231.5 -39.5t135 -94t57.5 -132.5t14.5 -127t-12 -104l-90 -512q-10 -55 -24.5 -105.5t-58.5 -127t-104.5 -131t-169 -94.5t-246.5 -40q-100 0 -177 21.5t-124 53.5t-77.5 79t-43 91 t-15.5 96zM422.5 383q21.5 -68 126 -68t143.5 58.5t64 195.5l51 295q31 119 9.5 186.5t-126 67.5t-143.5 -58.5t-64 -195.5l-51 -295q-31 -118 -9.5 -186zM465 1720q8 47 49 82t88 35t76 -35t20 -82q-10 -47 -50 -81.5t-87 -34.5t-75.5 34.5t-20.5 81.5zM895 1720 q8 47 49 82t88 35t76 -35t20 -82q-10 -47 -50 -81.5t-87 -34.5t-75.5 34.5t-20.5 81.5z" />
<glyph unicode="&#xf7;" d="M6 494l64 352h1183l-63 -352h-1184zM385 252q14 78 68.5 125t132.5 47t117.5 -47t25.5 -125q-12 -70 -70.5 -121t-132 -51t-113.5 52t-28 120zM532 1092q12 70 71 121t132.5 51t113.5 -52.5t28 -119.5q-14 -78 -69.5 -125t-133.5 -47t-117 47t-25 125z" />
<glyph unicode="&#xf8;" horiz-adv-x="1232" d="M-133 10l115 152q-55 119 -23 299l90 512q8 53 23.5 104t58.5 128t104.5 131.5t170 94t245.5 39.5q166 0 271 -57l84 111l163 -101l-114 -151q51 -111 22 -299l-90 -512q-10 -55 -24.5 -105.5t-58.5 -127t-104.5 -131t-169 -94.5t-245.5 -40q-170 0 -276 60l-84 -111z M342 643l340 453q-33 23 -94 22q-104 0 -143 -58.5t-64 -195.5zM348 340q33 -25 98 -25q104 0 143.5 58.5t63.5 195.5l39 224z" />
<glyph unicode="&#xf9;" horiz-adv-x="1208" d="M58 304q-3 52 1 86t11 71l170 973h352l-152 -865q-31 -119 -9 -186.5t126.5 -67.5t143 58.5t63.5 195.5l151 865h353l-170 -973q-10 -55 -24.5 -105.5t-58.5 -127t-104.5 -131t-169 -94.5t-245.5 -40q-100 0 -177 21.5t-124.5 53.5t-78 79t-43 91t-15.5 96zM459 1968 l311 -291h281l-211 291h-381z" />
<glyph unicode="&#xfa;" horiz-adv-x="1208" d="M58 304q-3 52 1 86t11 71l170 973h352l-152 -865q-31 -119 -9 -186.5t126.5 -67.5t143 58.5t63.5 195.5l151 865h353l-170 -973q-10 -55 -24.5 -105.5t-58.5 -127t-104.5 -131t-169 -94.5t-245.5 -40q-100 0 -177 21.5t-124.5 53.5t-78 79t-43 91t-15.5 96zM408 1677h280 l414 291h-381z" />
<glyph unicode="&#xfb;" horiz-adv-x="1208" d="M58 304q-3 52 1 86t11 71l170 973h352l-152 -865q-31 -119 -9 -186.5t126.5 -67.5t143 58.5t63.5 195.5l151 865h353l-170 -973q-10 -55 -24.5 -105.5t-58.5 -127t-104.5 -131t-169 -94.5t-245.5 -40q-100 0 -177 21.5t-124.5 53.5t-78 79t-43 91t-15.5 96zM416 1679 l446 381l316 -381l-170 -143l-195 238l-281 -238z" />
<glyph unicode="&#xfc;" horiz-adv-x="1208" d="M58 304q-3 52 1 86t11 71l170 973h352l-152 -865q-31 -119 -9 -186.5t126.5 -67.5t143 58.5t63.5 195.5l151 865h353l-170 -973q-10 -55 -24.5 -105.5t-58.5 -127t-104.5 -131t-169 -94.5t-245.5 -40q-100 0 -177 21.5t-124.5 53.5t-78 79t-43 91t-15.5 96zM473 1720 q8 47 49 82t88 35t76 -35t21 -82q-10 -47 -50.5 -81.5t-87.5 -34.5t-75.5 34.5t-20.5 81.5zM903 1720q8 47 49 82t88 35t76 -35t21 -82q-10 -47 -50 -81.5t-87.5 -34.5t-76 34.5t-20.5 81.5z" />
<glyph unicode="&#xfd;" horiz-adv-x="1230" d="M654 1594h280l414 291h-381zM154 1434l247 -910l-92 -524h410l92 524l565 910h-426l-264 -461l-104 461h-428z" />
<glyph unicode="&#xff;" horiz-adv-x="1230" d="M481.5 1710q8.5 47 49.5 81.5t88 34.5t75.5 -34.5t20.5 -81.5q-10 -47 -50 -82t-87 -35t-76 35t-20.5 82zM912 1710q8 47 49 81.5t88 34.5t75.5 -34.5t20.5 -81.5q-10 -47 -50 -82t-87 -35t-75.5 35t-20.5 82zM154 1434l247 -910l-92 -524h410l92 524l565 910h-426 l-264 -461l-104 461h-428z" />
<glyph unicode="&#x152;" horiz-adv-x="2332" d="M1192 0h983l61 352h-618l35 189h440l62 352h-441l33 188h619l61 353h-983zM50 304q-1 22 -1 42q0 25 2 44q4 34 10 71l91 512q8 53 23 104t58 128t104.5 131.5t170 94t246 39.5t231.5 -39.5t135 -94t58 -132.5q15 -69 14 -115v-12q-2 -49 -12 -104l-90 -512 q-10 -55 -24.5 -105.5t-58.5 -127t-104.5 -131t-169 -94.5t-246.5 -40q-100 0 -177 21.5t-124 53.5t-77.5 79t-43 91t-15.5 96zM423 383q22 -68 126 -68t143 58.5t64 195.5l51 295q18 70 18 122q0 37 -9 65q-22 68 -126 67.5t-143 -59t-64 -195.5l-51 -295q-18 -70 -18 -122 q0 -36 9 -64z" />
<glyph unicode="&#x153;" horiz-adv-x="2332" d="M1192 0h983l61 352h-618l35 189h440l62 352h-441l33 188h619l61 353h-983zM50 304q-1 22 -1 42q0 25 2 44q4 34 10 71l91 512q8 53 23 104t58 128t104.5 131.5t170 94t246 39.5t231.5 -39.5t135 -94t58 -132.5q15 -69 14 -115v-12q-2 -49 -12 -104l-90 -512 q-10 -55 -24.5 -105.5t-58.5 -127t-104.5 -131t-169 -94.5t-246.5 -40q-100 0 -177 21.5t-124 53.5t-77.5 79t-43 91t-15.5 96zM423 383q22 -68 126 -68t143 58.5t64 195.5l51 295q18 70 18 122q0 37 -9 65q-22 68 -126 67.5t-143 -59t-64 -195.5l-51 -295q-18 -70 -18 -122 q0 -36 9 -64z" />
<glyph unicode="&#x178;" horiz-adv-x="1230" d="M481.5 1710q8.5 47 49.5 81.5t88 34.5t75.5 -34.5t20.5 -81.5q-10 -47 -50 -82t-87 -35t-76 35t-20.5 82zM912 1710q8 47 49 81.5t88 34.5t75.5 -34.5t20.5 -81.5q-10 -47 -50 -82t-87 -35t-75.5 35t-20.5 82zM154 1434l247 -910l-92 -524h410l92 524l565 910h-426 l-264 -461l-104 461h-428z" />
<glyph unicode="&#x2c6;" d="M422 1679l446 381l316 -381l-170 -143l-195 238l-280 -238z" />
<glyph unicode="&#x2dc;" horiz-adv-x="942" d="M254 1753q35 -111 105.5 -150.5t149.5 -26.5t155.5 34.5t138 17.5t82.5 -59l194 59q-35 111 -105.5 151t-149.5 26.5t-155.5 -35t-137 -17.5t-80.5 59z" />
<glyph unicode="&#x2000;" horiz-adv-x="1030" />
<glyph unicode="&#x2001;" horiz-adv-x="2060" />
<glyph unicode="&#x2002;" horiz-adv-x="1030" />
<glyph unicode="&#x2003;" horiz-adv-x="2060" />
<glyph unicode="&#x2004;" horiz-adv-x="686" />
<glyph unicode="&#x2005;" horiz-adv-x="514" />
<glyph unicode="&#x2006;" horiz-adv-x="342" />
<glyph unicode="&#x2007;" horiz-adv-x="342" />
<glyph unicode="&#x2008;" horiz-adv-x="256" />
<glyph unicode="&#x2009;" horiz-adv-x="411" />
<glyph unicode="&#x200a;" horiz-adv-x="112" />
<glyph unicode="&#x2010;" horiz-adv-x="1347" d="M127 494l63 352h1061l-63 -352h-1061z" />
<glyph unicode="&#x2011;" horiz-adv-x="1347" d="M127 494l63 352h1061l-63 -352h-1061z" />
<glyph unicode="&#x2012;" horiz-adv-x="1347" d="M127 494l63 352h1061l-63 -352h-1061z" />
<glyph unicode="&#x2013;" d="M174 510l62 352h856l-62 -352h-856z" />
<glyph unicode="&#x2014;" horiz-adv-x="1880" d="M90 510l62 352h1675l-62 -352h-1675z" />
<glyph unicode="&#x2018;" horiz-adv-x="475" d="M215 862h352l62 352h-176q27 135 137 226q-274 0 -324 -287z" />
<glyph unicode="&#x2019;" horiz-adv-x="493" d="M158 1081h176q-27 -135 -137 -225q274 0 323 287l51 291h-352z" />
<glyph unicode="&#x201a;" horiz-adv-x="485" d="M-123 0h176q-27 -135 -137 -225q274 0 324 286l51 291h-352z" />
<glyph unicode="&#x201c;" horiz-adv-x="884" d="M111 854h352l61 352h-176q27 135 137 226q-274 0 -323 -287zM520 854h352l62 352h-176q27 135 137 226q-274 0 -324 -287z" />
<glyph unicode="&#x201d;" horiz-adv-x="884" d="M55 1077h176q-27 -135 -137 -225q274 0 324 287l51 291h-352zM465 1077h176q-27 -135 -137 -225q274 0 323 287l52 291h-353z" />
<glyph unicode="&#x201e;" horiz-adv-x="915" d="M-123 0h176q-27 -135 -137 -225q274 0 324 286l51 291h-352zM307 0h176q-27 -135 -137 -225q274 0 324 286l51 291h-352z" />
<glyph unicode="&#x2022;" d="M432 717q14 84 87 145.5t157 61.5t134 -61.5t36 -145.5q-16 -84 -88 -145.5t-156 -61.5t-134 61.5t-36 145.5z" />
<glyph unicode="&#x2026;" horiz-adv-x="1474" d="M-123 0h352l62 352h-352zM385 0h352l62 352h-353zM877 0h352l61 352h-352z" />
<glyph unicode="&#x202f;" horiz-adv-x="411" />
<glyph unicode="&#x2039;" horiz-adv-x="755" d="M-33 780l576 490l119 -142l-410 -348l287 -346l-168 -143z" />
<glyph unicode="&#x203a;" horiz-adv-x="755" d="M174 487l410 347l-287 346l168 143l405 -489l-577 -490z" />
<glyph unicode="&#x205f;" horiz-adv-x="514" />
<glyph unicode="&#x2122;" horiz-adv-x="2834" d="M1212 0h352l170 958l64 -958h245l404 958l-170 -958h352l252 1434h-539l-292 -701l-47 701h-539zM109 1081h409l-190 -1081h352l190 1081h410l61 353h-1171z" />
<glyph unicode="&#xe000;" horiz-adv-x="1435" d="M0 1435h1435v-1435h-1435v1435z" />
<glyph unicode="&#xfb01;" horiz-adv-x="1679" d="M1126 0h348l252 1434h-348zM0 0h365l96 541h461l61 352h-461l33 188h639l61 353h-1003z" />
<glyph unicode="&#xfb02;" horiz-adv-x="2185" d="M1126 0h932l61 352h-579l190 1082h-352zM0 0h365l96 541h461l61 352h-461l33 188h639l61 353h-1003z" />
<glyph unicode="&#xfb03;" horiz-adv-x="2805" d="M2253 0h348l252 1434h-348zM1126 0h365l96 541h461l61 352h-461l33 188h639l61 353h-1003zM0 0h365l96 541h461l61 352h-461l33 188h639l61 353h-1003z" />
<glyph unicode="&#xfb04;" horiz-adv-x="3311" d="M2253 0h932l61 352h-579l190 1082h-352zM1126 0h365l96 541h461l61 352h-461l33 188h639l61 353h-1003zM0 0h365l96 541h461l61 352h-461l33 188h639l61 353h-1003z" />
</font>
</defs>
</svg>
